<svg xmlns="http://www.w3.org/2000/svg" viewBox="0 0 52 66" id="Bookmark"><g fill-rule="evenodd" fill="#ffffff" class="color000000 svgShape"><path d="M6.494 4h39.012A2.494 2.494 0 0 1 48 6.502V60.21c0 1.62-.125 1.68-1.377.658L27.265 45.06a2 2 0 0 0-2.53 0L5.377 60.867C4.117 61.895 4 61.84 4 60.209V6.502C4 5.122 5.12 4 6.494 4ZM0 60.209c0 5.004 4.035 6.918 7.907 3.756l18.142-14.734 18.044 14.734C47.956 67.12 52 65.204 52 60.21V6.502A6.494 6.494 0 0 0 45.506 0H6.494C2.91 0 0 2.913 0 6.502V60.21Z" fill="#ffffff" class="color000000 svgShape"></path><path d="m20.218 33.973.277-5.433a2 2 0 0 0-.441-1.359L16.7 22.946l5.183-1.397a2 2 0 0 0 1.155-.84l2.981-4.513 2.94 4.514a2 2 0 0 0 1.156.84l5.225 1.427-3.395 4.204a2 2 0 0 0-.441 1.359l.356 5.448-5.147-1.968a2 2 0 0 0-1.428 0l-5.068 1.953ZM33.22 38.79a2 2 0 0 0 2.712-1.97l-.384-7.733 4.846-6.002a2 2 0 0 0-1.035-3.188l-7.471-2.02-4.213-6.469a2 2 0 0 0-3.352 0l-4.192 6.47-7.492 2.02a2 2 0 0 0-1.035 3.187l4.858 5.982-.396 7.753a2 2 0 0 0 2.712 1.97L26 36.012l7.221 2.778Z" fill="#ffffff" class="color000000 svgShape"></path></g></svg>