<svg width="21" height="18" viewBox="0 0 21 18" fill="none" xmlns="http://www.w3.org/2000/svg">
<path d="M20.5961 0.522727H5.7098C5.59765 0.522727 5.50588 0.616818 5.50588 0.731818V2.19545C5.50588 2.31045 5.59765 2.40455 5.7098 2.40455H20.5961C20.7082 2.40455 20.8 2.31045 20.8 2.19545V0.731818C20.8 0.616818 20.7082 0.522727 20.5961 0.522727ZM20.5961 7.94545H5.7098C5.59765 7.94545 5.50588 8.03955 5.50588 8.15455V9.61818C5.50588 9.73318 5.59765 9.82727 5.7098 9.82727H20.5961C20.7082 9.82727 20.8 9.73318 20.8 9.61818V8.15455C20.8 8.03955 20.7082 7.94545 20.5961 7.94545ZM20.5961 15.3682H5.7098C5.59765 15.3682 5.50588 15.4623 5.50588 15.5773V17.0409C5.50588 17.1559 5.59765 17.25 5.7098 17.25H20.5961C20.7082 17.25 20.8 17.1559 20.8 17.0409V15.5773C20.8 15.4623 20.7082 15.3682 20.5961 15.3682ZM0 1.46364C-2.7933e-09 1.65584 0.0369222 1.84617 0.108658 2.02375C0.180394 2.20132 0.28554 2.36267 0.418091 2.49858C0.550642 2.6345 0.708003 2.74231 0.881189 2.81586C1.05438 2.88941 1.24 2.92727 1.42745 2.92727C1.61491 2.92727 1.80053 2.88941 1.97371 2.81586C2.1469 2.74231 2.30426 2.6345 2.43681 2.49858C2.56936 2.36267 2.67451 2.20132 2.74624 2.02375C2.81798 1.84617 2.8549 1.65584 2.8549 1.46364C2.8549 1.27143 2.81798 1.0811 2.74624 0.903527C2.67451 0.725951 2.56936 0.5646 2.43681 0.428689C2.30426 0.292778 2.1469 0.184967 1.97371 0.111413C1.80053 0.0378579 1.61491 0 1.42745 0C1.24 0 1.05438 0.0378579 0.881189 0.111413C0.708003 0.184967 0.550642 0.292778 0.418091 0.428689C0.28554 0.5646 0.180394 0.725951 0.108658 0.903527C0.0369222 1.0811 -2.7933e-09 1.27143 0 1.46364ZM0 8.88636C-2.7933e-09 9.07857 0.0369222 9.2689 0.108658 9.44647C0.180394 9.62405 0.28554 9.7854 0.418091 9.92131C0.550642 10.0572 0.708003 10.165 0.881189 10.2386C1.05438 10.3121 1.24 10.35 1.42745 10.35C1.61491 10.35 1.80053 10.3121 1.97371 10.2386C2.1469 10.165 2.30426 10.0572 2.43681 9.92131C2.56936 9.7854 2.67451 9.62405 2.74624 9.44647C2.81798 9.2689 2.8549 9.07857 2.8549 8.88636C2.8549 8.69416 2.81798 8.50383 2.74624 8.32625C2.67451 8.14868 2.56936 7.98733 2.43681 7.85142C2.30426 7.71551 2.1469 7.6077 1.97371 7.53414C1.80053 7.46059 1.61491 7.42273 1.42745 7.42273C1.24 7.42273 1.05438 7.46059 0.881189 7.53414C0.708003 7.6077 0.550642 7.71551 0.418091 7.85142C0.28554 7.98733 0.180394 8.14868 0.108658 8.32625C0.0369222 8.50383 -2.7933e-09 8.69416 0 8.88636ZM0 16.3091C-2.7933e-09 16.5013 0.0369222 16.6916 0.108658 16.8692C0.180394 17.0468 0.28554 17.2081 0.418091 17.344C0.550642 17.4799 0.708003 17.5878 0.881189 17.6613C1.05438 17.7349 1.24 17.7727 1.42745 17.7727C1.61491 17.7727 1.80053 17.7349 1.97371 17.6613C2.1469 17.5878 2.30426 17.4799 2.43681 17.344C2.56936 17.2081 2.67451 17.0468 2.74624 16.8692C2.81798 16.6916 2.8549 16.5013 2.8549 16.3091C2.8549 16.1169 2.81798 15.9266 2.74624 15.749C2.67451 15.5714 2.56936 15.4101 2.43681 15.2741C2.30426 15.1382 2.1469 15.0304 1.97371 14.9569C1.80053 14.8833 1.61491 14.8455 1.42745 14.8455C1.24 14.8455 1.05438 14.8833 0.881189 14.9569C0.708003 15.0304 0.550642 15.1382 0.418091 15.2741C0.28554 15.4101 0.180394 15.5714 0.108658 15.749C0.0369222 15.9266 -2.7933e-09 16.1169 0 16.3091Z" fill="black"/>
</svg>
