<svg width="24" height="21" viewBox="0 0 24 21" fill="none" xmlns="http://www.w3.org/2000/svg">
<path d="M12.12 17.7956L12 17.9101L11.868 17.7956C6.168 12.8632 2.4 9.60163 2.4 6.29428C2.4 4.00545 4.2 2.28883 6.6 2.28883C8.448 2.28883 10.248 3.43324 10.884 4.98965H13.116C13.752 3.43324 15.552 2.28883 17.4 2.28883C19.8 2.28883 21.6 4.00545 21.6 6.29428C21.6 9.60163 17.832 12.8632 12.12 17.7956ZM17.4 0C15.312 0 13.308 0.926975 12 2.38038C10.692 0.926975 8.688 0 6.6 0C2.904 0 0 2.75804 0 6.29428C0 10.6087 4.08 14.145 10.26 19.4894L12 21L13.74 19.4894C19.92 14.145 24 10.6087 24 6.29428C24 2.75804 21.096 0 17.4 0Z" fill="white"/>
</svg>
