<svg width="27" height="27" viewBox="0 0 27 27" fill="none" xmlns="http://www.w3.org/2000/svg">
<path d="M2 22.125C2 20.6 2.6058 19.1375 3.68414 18.0591C4.76247 16.9808 6.22501 16.375 7.75 16.375H19.25C20.775 16.375 22.2375 16.9808 23.3159 18.0591C24.3942 19.1375 25 20.6 25 22.125C25 22.8875 24.6971 23.6188 24.1579 24.1579C23.6188 24.6971 22.8875 25 22.125 25H4.875C4.1125 25 3.38123 24.6971 2.84207 24.1579C2.3029 23.6188 2 22.8875 2 22.125Z" stroke="white" stroke-width="2.5" stroke-linejoin="round"/>
<path d="M13.5 10.625C15.8817 10.625 17.8125 8.69423 17.8125 6.3125C17.8125 3.93077 15.8817 2 13.5 2C11.1183 2 9.1875 3.93077 9.1875 6.3125C9.1875 8.69423 11.1183 10.625 13.5 10.625Z" stroke="white" stroke-width="2.5"/>
</svg>
